# xmcd CD database file
#
# Track frame offsets:
#	150
#	10583
#	23538
#	39869
#	55596
#	75743
#	95008
#	110017
#	128269
#	139350
#	153391
#	167372
#	178002
#	194445
#
# Disc length: 2865 seconds
#
# Revision: 0
# Processed by: cddbd v1.5.2PL0 Copyright (c) Steve Scherf et al.
# Submitted via: CDex 1.51
#
DISCID=a10b2f0e
DTITLE=Vali 'Sir Blues' Rãcilã and Raul Ruºak - HandMade Blues
DYEAR=2011
DGENRE=Blues
TTITLE0=I'm Crazy for My Baby - Willie Dixon
TTITLE1=You Can't Get That Staff No More - Tampa Red
TTITLE2=When Did You Leave Haven - Big Bill Broonzy
TTITLE3=Sugar Mama Blues - Sony Boy Williamson [John Lee]
TTITLE4=From Four Till Late - Robert Johnson
TTITLE5=Irene Good Night - Huddie Ledbetter
TTITLE6=St. Louis Blues - W.C. Handy
TTITLE7=How Can a Poor Man Stand Such Times - Blind Alfred Reed
TTITLE8=Rattlesnakin' Daddy - Blind Boy Fuller
TTITLE9=Is That a Monkey You Got? - Jazz Gillum
TTITLE10=Sugar Cup - Roosevelt Sykes
TTITLE11=I Don't Trust Myself - Willie Dixon
TTITLE12=You Talk Too Much - Lowell Fulson, Ferdinand Washington
TTITLE13=Little Wing - Jimi Hendrix
EXTD=YEAR: 2011
EXTT0=
EXTT1=
EXTT2=
EXTT3=
EXTT4=
EXTT5=
EXTT6=
EXTT7=
EXTT8=
EXTT9=
EXTT10=
EXTT11=
EXTT12=
EXTT13=
PLAYORDER=
